# xmcd
#
# Track frame offsets: 
#        150
#        13642
#        20004
#        38541
#        46498
#        58205
#        69382
#        85684
#        100011
#        111353
#        133240
#        146147
#
# Disc length: 2102 seconds
#
# Revision: 0
# Processed by: cddbd v1.5.2PL0 Copyright (c) Steve Scherf et al.
# Submitted via: ExactAudioCopy v1.0b3
#
DISCID=a508340c
DTITLE=Various Artist - Big Bad John - Songs For Good Ole Boys
DYEAR=2002
DGENRE=Country
TTITLE0=Jimmy Dean - Big Bad John
TTITLE1=Merle Haggard - The Fightin' Side Of Me
TTITLE2=Bobby Bare - Tequila Sheila
TTITLE3=Roger Miller - Dang Me
TTITLE4=George Jones - White Lightnin'
TTITLE5=Bill Anderson - Wild Weekend
TTITLE6=Lynn Anderson - The Devil Went Down To Georgia
TTITLE7=Conway Twitty - You've Never Been This Far Before
TTITLE8=Sandy Posey - Arms Full Of Sin
TTITLE9=Bobby Bare - Numbers
TTITLE10=Frankie Laine - High Noon (Do Not Forsake Me)
TTITLE11=The Kendalls - Heaven's Just A Sin Away
EXTD=
EXTT0=
EXTT1=
EXTT2=
EXTT3=
EXTT4=
EXTT5=
EXTT6=
EXTT7=
EXTT8=
EXTT9=
EXTT10=
EXTT11=
PLAYORDER=
